<mxfile host="app.diagrams.net" agent="Mozilla/5.0 (Macintosh; Intel Mac OS X 10_15_7) AppleWebKit/537.36 (KHTML, like Gecko) Chrome/124.0.0.0 Safari/537.36" version="26.0.5">
  <diagram name="Page-1" id="YLKZO_a49J6h5-vwQdo8">
    <mxGraphModel dx="890" dy="1057" grid="1" gridSize="10" guides="1" tooltips="1" connect="1" arrows="1" fold="1" page="1" pageScale="1" pageWidth="827" pageHeight="1169" math="0" shadow="0">
      <root>
        <mxCell id="0" />
        <mxCell id="1" parent="0" />
        <mxCell id="M5v2R0khb8lXUGfrtRvx-5" style="edgeStyle=orthogonalEdgeStyle;rounded=0;orthogonalLoop=1;jettySize=auto;html=1;exitX=1;exitY=1;exitDx=0;exitDy=0;" edge="1" parent="1" source="M5v2R0khb8lXUGfrtRvx-3">
          <mxGeometry relative="1" as="geometry">
            <mxPoint x="650" y="240" as="targetPoint" />
          </mxGeometry>
        </mxCell>
        <mxCell id="M5v2R0khb8lXUGfrtRvx-3" value="" style="rounded=0;whiteSpace=wrap;html=1;" vertex="1" parent="1">
          <mxGeometry x="340" y="20" width="120" height="60" as="geometry" />
        </mxCell>
        <mxCell id="M5v2R0khb8lXUGfrtRvx-4" value="linkd list" style="text;html=1;align=center;verticalAlign=middle;whiteSpace=wrap;rounded=0;" vertex="1" parent="1">
          <mxGeometry x="370" y="35" width="60" height="30" as="geometry" />
        </mxCell>
        <mxCell id="M5v2R0khb8lXUGfrtRvx-10" style="edgeStyle=orthogonalEdgeStyle;rounded=0;orthogonalLoop=1;jettySize=auto;html=1;exitX=1;exitY=0.25;exitDx=0;exitDy=0;" edge="1" parent="1" source="M5v2R0khb8lXUGfrtRvx-8">
          <mxGeometry relative="1" as="geometry">
            <mxPoint x="790" y="560" as="targetPoint" />
            <Array as="points">
              <mxPoint x="791" y="268" />
            </Array>
          </mxGeometry>
        </mxCell>
        <mxCell id="M5v2R0khb8lXUGfrtRvx-11" style="edgeStyle=orthogonalEdgeStyle;rounded=0;orthogonalLoop=1;jettySize=auto;html=1;exitX=1;exitY=0.5;exitDx=0;exitDy=0;" edge="1" parent="1" source="M5v2R0khb8lXUGfrtRvx-8">
          <mxGeometry relative="1" as="geometry">
            <mxPoint x="710" y="480" as="targetPoint" />
          </mxGeometry>
        </mxCell>
        <mxCell id="M5v2R0khb8lXUGfrtRvx-8" value="&lt;div style=&quot;color: #e1e4e8;background-color: #0d1117;font-family: Menlo, Monaco, &#39;Courier New&#39;, monospace;font-weight: normal;font-size: 12px;line-height: 18px;white-space: pre;&quot;&gt;&lt;div&gt;&lt;span style=&quot;color: #f97583;&quot;&gt;typedef&lt;/span&gt;&lt;span style=&quot;color: #e1e4e8;&quot;&gt; &lt;/span&gt;&lt;span style=&quot;color: #b392e9;&quot;&gt;struct&lt;/span&gt;&lt;span style=&quot;color: #e1e4e8;&quot;&gt; &lt;/span&gt;&lt;span style=&quot;color: #b392f0;&quot;&gt;swap_a&lt;/span&gt;&lt;/div&gt;&lt;div&gt;&lt;span style=&quot;color: #c9d1d9;&quot;&gt;{&lt;/span&gt;&lt;/div&gt;&lt;div&gt;&lt;span style=&quot;color: #e1e4e8;&quot;&gt;    &lt;/span&gt;&lt;span style=&quot;color: #b392e9;&quot;&gt;void&lt;/span&gt;&lt;span style=&quot;color: #e1e4e8;&quot;&gt;            &lt;/span&gt;&lt;span style=&quot;color: #e86d63;&quot;&gt;*&lt;/span&gt;&lt;span style=&quot;color: #c9d1d9;&quot;&gt;data&lt;/span&gt;&lt;span style=&quot;color: #c9d1d9;&quot;&gt;;&lt;/span&gt;&lt;/div&gt;&lt;div&gt;&lt;span style=&quot;color: #e1e4e8;&quot;&gt;    &lt;/span&gt;&lt;span style=&quot;color: #b392e9;&quot;&gt;struct&lt;/span&gt;&lt;span style=&quot;color: #e1e4e8;&quot;&gt; &lt;/span&gt;&lt;span style=&quot;color: #b392f0;&quot;&gt;swap_a&lt;/span&gt;&lt;span style=&quot;color: #e1e4e8;&quot;&gt;   &lt;/span&gt;&lt;span style=&quot;color: #e86d63;&quot;&gt;*&lt;/span&gt;&lt;span style=&quot;color: #c9d1d9;&quot;&gt;next&lt;/span&gt;&lt;span style=&quot;color: #c9d1d9;&quot;&gt;;&lt;/span&gt;&lt;/div&gt;&lt;div&gt;&lt;span style=&quot;color: #e1e4e8;&quot;&gt;    &lt;/span&gt;&lt;span style=&quot;color: #b392e9;&quot;&gt;struct&lt;/span&gt;&lt;span style=&quot;color: #e1e4e8;&quot;&gt; &lt;/span&gt;&lt;span style=&quot;color: #b392f0;&quot;&gt;swap_a&lt;/span&gt;&lt;span style=&quot;color: #e1e4e8;&quot;&gt;   &lt;/span&gt;&lt;span style=&quot;color: #e86d63;&quot;&gt;*&lt;/span&gt;&lt;span style=&quot;color: #c9d1d9;&quot;&gt;prev&lt;/span&gt;&lt;span style=&quot;color: #c9d1d9;&quot;&gt;;&lt;/span&gt;&lt;/div&gt;&lt;div&gt;&lt;span style=&quot;color: #c9d1d9;&quot;&gt;}&lt;/span&gt;&lt;span style=&quot;color: #e1e4e8;&quot;&gt;                   &lt;/span&gt;&lt;span style=&quot;color: #b392f0;&quot;&gt;a_list&lt;/span&gt;&lt;span style=&quot;color: #c9d1d9;&quot;&gt;;&lt;/span&gt;&lt;/div&gt;&lt;br&gt;&lt;/div&gt;" style="text;whiteSpace=wrap;html=1;" vertex="1" parent="1">
          <mxGeometry x="550" y="220" width="200" height="150" as="geometry" />
        </mxCell>
        <mxCell id="M5v2R0khb8lXUGfrtRvx-13" value="" style="endArrow=classic;html=1;rounded=0;" edge="1" parent="1">
          <mxGeometry width="50" height="50" relative="1" as="geometry">
            <mxPoint x="550" y="320" as="sourcePoint" />
            <mxPoint x="490" y="550" as="targetPoint" />
            <Array as="points">
              <mxPoint x="500" y="380" />
            </Array>
          </mxGeometry>
        </mxCell>
        <mxCell id="M5v2R0khb8lXUGfrtRvx-14" value="Go back in node" style="rounded=1;whiteSpace=wrap;html=1;" vertex="1" parent="1">
          <mxGeometry x="430" y="550" width="120" height="60" as="geometry" />
        </mxCell>
        <mxCell id="M5v2R0khb8lXUGfrtRvx-15" value="node adders" style="rounded=1;whiteSpace=wrap;html=1;" vertex="1" parent="1">
          <mxGeometry x="610" y="480" width="120" height="60" as="geometry" />
        </mxCell>
        <mxCell id="M5v2R0khb8lXUGfrtRvx-16" value="node data" style="rounded=1;whiteSpace=wrap;html=1;" vertex="1" parent="1">
          <mxGeometry x="700" y="560" width="120" height="60" as="geometry" />
        </mxCell>
      </root>
    </mxGraphModel>
  </diagram>
</mxfile>
